<?xml version="1.0" encoding="utf-8"?>
<!-- Generator: Adobe Illustrator 25.0.1, SVG Export Plug-In . SVG Version: 6.00 Build 0)  -->
<svg version="1.1" id="Layer_1" xmlns="http://www.w3.org/2000/svg" xmlns:xlink="http://www.w3.org/1999/xlink" x="0px" y="0px"
	 viewBox="0 0 184 74.65" style="enable-background:new 0 0 184 74.65;" xml:space="preserve">
<style type="text/css">
	.st0{fill:none;stroke:#138808;stroke-width:0.5;stroke-miterlimit:10;}
	.st1{fill:none;stroke:#138808;stroke-width:0.5;stroke-linejoin:round;stroke-miterlimit:10;}
	.st2{fill:#138808;}
	.st3{fill:none;stroke:#138808;stroke-width:0.5999;stroke-miterlimit:10;}
	.st4{fill:none;stroke:#138808;stroke-width:0.3817;stroke-miterlimit:10;}
	.st5{filter:url(#Adobe_OpacityMaskFilter);}
	.st6{mask:url(#SVGID_1_);}
	.st7{fill:#007D00;}
	.st8{fill:#FFFFFF;stroke:#007D00;stroke-width:1.7051;stroke-miterlimit:10;}
	.st9{fill:#FFFFFF;}
	.st10{fill:#A74A17;}
	.st11{fill:#FFFFFF;stroke:#A74A17;stroke-width:1.5287;stroke-miterlimit:10;}
	.st12{fill:none;stroke:#A74A17;stroke-width:1.5287;stroke-miterlimit:10;}
	.st13{fill:#FFBB00;}
	.st14{fill:#FFFFFF;stroke:#FFFFFF;stroke-width:4.0922;stroke-linecap:round;stroke-miterlimit:10;}
	.st15{fill:none;stroke:#FFBB00;stroke-width:2.0461;stroke-miterlimit:10;}
	.st16{fill:none;stroke:#FFFFFF;stroke-width:2.0461;stroke-miterlimit:10;}
	.st17{fill:#FFBB00;stroke:#FFFFFF;stroke-width:1.7051;stroke-miterlimit:10;}
	.st18{fill:none;stroke:#FFFFFF;stroke-width:1.7051;stroke-miterlimit:10;}
	.st19{fill:#29ABE2;}
	.st20{fill:none;stroke:#FFFFFF;stroke-miterlimit:10;}
	.st21{fill:none;stroke:#FFFFFF;stroke-width:3;stroke-miterlimit:10;}
	.st22{fill:#FFBC00;}
	.st23{fill:none;stroke:#FFBC00;stroke-width:1.7051;stroke-miterlimit:10;}
	.st24{fill:#009E00;}
	.st25{fill:none;stroke:#FFFFFF;stroke-width:1.3944;stroke-miterlimit:10;}
	.st26{fill:#37B34A;}
	.st27{fill:#7C5527;}
	.st28{fill:#1D8D45;}
	.st29{fill:#FED307;}
	.st30{fill:#39B24A;}
	.st31{fill:#F48123;}
	.st32{fill:#A79F35;}
	.st33{fill:#38B34A;}
	.st34{fill:#36B149;}
	.st35{fill:#37B349;}
	.st36{fill:#A9A13A;}
	.st37{fill:#A9A23B;}
	.st38{fill:#A9A139;}
	.st39{fill:#AAA23B;}
	.st40{fill:#F7F7EF;}
	.st41{fill:#F4F4E8;}
	.st42{fill:#F7F7EE;}
	.st43{fill:#0D1319;}
	.st44{fill:#C87400;}
	.st45{fill:#0B8236;}
	.st46{fill:#E42528;}
	.st47{fill:#A35800;}
	.st48{fill:#4B4F13;}
	.st49{fill:#E9A720;}
	.st50{fill:#1E407A;}
	.st51{fill:#124883;}
	.st52{fill-rule:evenodd;clip-rule:evenodd;fill:#FFFFFF;}
	.st53{fill:#122E53;}
	.st54{fill:#E1E33B;}
	.st55{fill:none;}
	.st56{fill:#96A0AA;}
	.st57{fill:#0A4256;}
	.st58{fill:#00852A;}
	.st59{fill:#6A605D;}
	.st60{fill:url(#SVGID_2_);}
	.st61{opacity:0.42;fill:url(#SVGID_3_);}
	.st62{opacity:0.42;fill:url(#SVGID_4_);}
	.st63{opacity:0.42;fill:url(#SVGID_5_);}
	.st64{opacity:0.42;fill:url(#SVGID_6_);}
	.st65{opacity:0.42;fill:url(#SVGID_7_);}
	.st66{opacity:0.42;fill:url(#SVGID_8_);}
	.st67{opacity:0.42;fill:url(#SVGID_9_);}
	.st68{fill:#02B702;}
	.st69{fill:#27AAE1;}
	.st70{fill:#2B3990;}
	.st71{fill:#CB2228;}
	.st72{fill:url(#SVGID_10_);}
	.st73{fill:url(#SVGID_11_);}
	.st74{fill:url(#SVGID_12_);}
	.st75{fill:url(#SVGID_13_);}
	.st76{fill:url(#SVGID_14_);}
	.st77{fill:url(#SVGID_15_);}
	.st78{fill:url(#SVGID_16_);}
	.st79{fill:url(#SVGID_17_);}
	.st80{fill:url(#SVGID_18_);}
	.st81{fill:url(#SVGID_19_);}
	.st82{fill:url(#SVGID_20_);}
	.st83{fill:url(#SVGID_21_);}
	.st84{fill:url(#SVGID_22_);}
	.st85{fill:url(#SVGID_23_);}
	.st86{fill:url(#SVGID_24_);}
	.st87{fill:url(#SVGID_25_);}
	.st88{fill:url(#SVGID_26_);}
	.st89{fill:url(#SVGID_27_);}
	.st90{fill:none;stroke:#138808;stroke-width:0.9265;stroke-miterlimit:10;}
</style>
<g>
	<g>
		<path class="st2" d="M105.5,49.99c0-0.82,0.11-1.49,0.32-2.02c0.21-0.53,0.53-0.94,0.94-1.25c0.41-0.3,0.92-0.51,1.51-0.63
			c0.59-0.11,1.26-0.17,2.01-0.17h5.01c0.94,0,1.69,0.08,2.26,0.26c0.57,0.17,1,0.41,1.31,0.72c0.3,0.31,0.5,0.69,0.59,1.13
			c0.1,0.44,0.14,0.94,0.14,1.49v0.36h-3.27c0-0.28-0.04-0.5-0.11-0.67c-0.07-0.17-0.18-0.29-0.33-0.38
			c-0.15-0.09-0.32-0.14-0.53-0.17c-0.21-0.03-0.44-0.04-0.71-0.04h-3.62c-0.42,0-0.77,0.03-1.04,0.09
			c-0.28,0.06-0.49,0.18-0.65,0.36c-0.15,0.18-0.26,0.42-0.33,0.72c-0.07,0.31-0.1,0.7-0.1,1.17v1.4c0,0.49,0.03,0.88,0.1,1.18
			c0.07,0.3,0.18,0.54,0.33,0.71c0.16,0.18,0.37,0.29,0.65,0.36c0.27,0.06,0.62,0.09,1.04,0.09h3.55c0.22,0,0.43-0.01,0.64-0.04
			c0.2-0.03,0.39-0.08,0.55-0.16c0.17-0.08,0.3-0.21,0.4-0.37c0.1-0.17,0.15-0.38,0.15-0.65v-0.33h-4.14v-2.32h7.47v3.19
			c0,0.81-0.11,1.44-0.32,1.89c-0.21,0.45-0.53,0.79-0.97,1.01c-0.43,0.22-0.99,0.35-1.66,0.4c-0.67,0.05-1.48,0.08-2.42,0.08h-4.01
			c-0.75,0-1.42-0.06-2.01-0.17c-0.59-0.11-1.09-0.32-1.51-0.63c-0.42-0.3-0.73-0.72-0.94-1.24c-0.22-0.52-0.32-1.2-0.32-2.02V49.99
			z"/>
		<path class="st2" d="M121.96,46.05h10.05c0.64,0,1.17,0.08,1.59,0.24c0.42,0.16,0.75,0.39,1,0.67c0.25,0.29,0.42,0.64,0.52,1.05
			c0.1,0.41,0.15,0.87,0.15,1.37v0.71c0,0.37-0.02,0.71-0.08,1.01c-0.05,0.3-0.14,0.56-0.28,0.79c-0.14,0.23-0.33,0.42-0.57,0.58
			c-0.24,0.16-0.56,0.29-0.94,0.38v0.03c0.25,0.05,0.48,0.12,0.71,0.21c0.22,0.09,0.41,0.22,0.58,0.41c0.17,0.19,0.3,0.43,0.39,0.72
			c0.09,0.29,0.14,0.67,0.14,1.14v1.91h-3.33v-1.35c0-0.59-0.1-1-0.29-1.22c-0.19-0.23-0.55-0.34-1.07-0.34h-5.23v2.91h-3.33V46.05z
			 M125.29,51.57h5.5c0.45,0,0.77-0.1,0.95-0.29c0.19-0.19,0.28-0.49,0.28-0.89v-0.37c0-0.5-0.12-0.82-0.37-0.96
			c-0.24-0.15-0.63-0.22-1.16-0.22h-5.2V51.57z"/>
		<path class="st2" d="M137.55,49.99c0-0.82,0.11-1.49,0.32-2.02c0.21-0.53,0.53-0.94,0.94-1.25c0.41-0.3,0.92-0.51,1.51-0.63
			c0.59-0.11,1.26-0.17,2.01-0.17h5.34c0.75,0,1.42,0.06,2.01,0.17c0.59,0.11,1.09,0.32,1.51,0.63c0.41,0.3,0.73,0.72,0.94,1.25
			c0.22,0.53,0.32,1.2,0.32,2.02v3.35c0,0.83-0.11,1.5-0.32,2.02c-0.22,0.52-0.53,0.94-0.94,1.24c-0.42,0.31-0.92,0.51-1.51,0.63
			c-0.59,0.11-1.26,0.17-2.01,0.17h-5.34c-0.75,0-1.42-0.06-2.01-0.17c-0.59-0.11-1.09-0.32-1.51-0.63
			c-0.42-0.3-0.73-0.72-0.94-1.24c-0.22-0.52-0.32-1.2-0.32-2.02V49.99z M140.98,52.27c0,0.4,0.02,0.75,0.07,1.04
			c0.05,0.29,0.15,0.52,0.28,0.7c0.14,0.18,0.34,0.31,0.59,0.39c0.25,0.08,0.57,0.12,0.96,0.12h4.26c0.39,0,0.71-0.04,0.96-0.12
			c0.25-0.08,0.44-0.21,0.59-0.39c0.14-0.18,0.23-0.41,0.28-0.7c0.05-0.29,0.07-0.64,0.07-1.04v-1.21c0-0.35-0.03-0.66-0.08-0.94
			s-0.16-0.51-0.31-0.71c-0.15-0.2-0.36-0.35-0.63-0.45c-0.27-0.1-0.62-0.16-1.06-0.16h-3.9c-0.44,0-0.8,0.05-1.07,0.16
			c-0.27,0.1-0.48,0.25-0.63,0.45c-0.15,0.2-0.25,0.43-0.31,0.71s-0.08,0.59-0.08,0.94V52.27z"/>
		<path class="st2" d="M154.76,46.05h3.33v6.48c0,0.71,0.14,1.22,0.42,1.53c0.28,0.31,0.76,0.46,1.44,0.46h3.3
			c0.68,0,1.16-0.15,1.44-0.46c0.28-0.3,0.42-0.81,0.42-1.53v-6.48h3.33v7.22c0,1.41-0.36,2.44-1.07,3.12
			c-0.72,0.67-1.84,1.01-3.38,1.01h-4.77c-1.54,0-2.67-0.34-3.38-1.01s-1.07-1.71-1.07-3.12V46.05z"/>
		<path class="st2" d="M170.97,46.05h9.07c0.79,0,1.44,0.1,1.95,0.29c0.51,0.2,0.91,0.47,1.2,0.81c0.29,0.34,0.49,0.75,0.61,1.22
			c0.11,0.47,0.17,0.98,0.17,1.53v0.96c0,0.42-0.05,0.85-0.15,1.27c-0.1,0.42-0.27,0.81-0.5,1.15c-0.24,0.35-0.55,0.63-0.94,0.85
			c-0.39,0.22-0.88,0.33-1.47,0.33h-6.61v2.82h-3.33V46.05z M174.3,51.67h5.17c0.39,0,0.67-0.12,0.83-0.35
			c0.16-0.23,0.25-0.51,0.25-0.84v-0.43c0-0.38-0.1-0.68-0.3-0.88s-0.56-0.31-1.06-0.31h-4.89V51.67z"/>
	</g>
	<g>
		<path class="st2" d="M5.63,69.95H3.85v4.7H2.51v-4.7H0.75v-1.07h4.88V69.95z"/>
		<path class="st2" d="M22.61,68.87v5.77h-1.35v-2.42h-2.34v2.42h-1.34v-5.77h1.34v2.28h2.34v-2.28H22.61z"/>
		<path class="st2" d="M36.41,74.65h-1.35v-5.77h1.35V74.65z"/>
		<path class="st2" d="M53.9,68.87v5.77h-1.09c-0.15,0-0.27-0.02-0.35-0.07c-0.08-0.05-0.16-0.14-0.24-0.27l-1.99-3.56h-0.08v3.91
			h-1.29v-5.77h1.26c0.16,0,0.28,0.02,0.36,0.07c0.08,0.05,0.16,0.14,0.23,0.28l1.81,3.29h0.08v-3.64H53.9z"/>
		<path class="st2" d="M69.75,68.87h1.49l-2.14,2.71l2.24,3.06h-1.58l-1.73-2.45h-0.37v2.45H66.3v-5.77h1.34v2.3H68L69.75,68.87z"/>
		<path class="st2" d="M97.75,74.65H96.4v-5.77h1.35V74.65z"/>
		<path class="st2" d="M116.64,68.87v5.77h-1.3v-4.21h-0.11l-1.19,3.91c-0.04,0.12-0.08,0.2-0.12,0.24
			c-0.04,0.04-0.12,0.06-0.22,0.06h-0.59c-0.11,0-0.19-0.02-0.23-0.06c-0.04-0.04-0.08-0.12-0.11-0.24l-1.2-3.95h-0.1v4.25h-1.26
			v-5.77h1.82c0.12,0,0.21,0.02,0.26,0.07c0.05,0.04,0.09,0.13,0.13,0.25l0.99,3.45h0.1l0.96-3.45c0.03-0.12,0.07-0.2,0.13-0.25
			c0.05-0.04,0.14-0.07,0.26-0.07H116.64z"/>
		<path class="st2" d="M133.71,70.79c0,0.81-0.17,1.36-0.5,1.66c-0.18,0.16-0.51,0.24-0.98,0.24h-1.83v1.96h-1.34v-5.77h3.18
			c0.48,0,0.81,0.08,0.98,0.23c0.15,0.14,0.27,0.34,0.36,0.58C133.67,69.93,133.71,70.3,133.71,70.79z M130.4,71.63h1.3
			c0.25,0,0.4-0.02,0.45-0.07c0.11-0.1,0.16-0.36,0.16-0.79c0-0.42-0.05-0.68-0.16-0.78c-0.06-0.05-0.21-0.07-0.45-0.07h-1.3V71.63z
			"/>
		<path class="st2" d="M149.14,74.65l-0.44-1.44h-1.99l-0.43,1.44h-1.34l1.79-5.42c0.06-0.16,0.11-0.26,0.17-0.31
			c0.05-0.05,0.16-0.07,0.3-0.07h1.11c0.14,0,0.24,0.02,0.3,0.07c0.06,0.05,0.11,0.15,0.17,0.31l1.79,5.42H149.14z M147.65,70.06
			l-0.64,2.15h1.39l-0.64-2.15H147.65z"/>
		<path class="st2" d="M167.14,72.5c-0.02,0.57-0.06,0.98-0.13,1.25c-0.07,0.27-0.18,0.47-0.34,0.62c-0.19,0.19-0.54,0.28-1.04,0.28
			h-1.77c-0.5,0-0.85-0.09-1.04-0.28c-0.19-0.18-0.33-0.45-0.42-0.82c-0.1-0.37-0.15-0.97-0.15-1.78c0-0.82,0.05-1.41,0.15-1.79
			s0.24-0.64,0.42-0.82c0.19-0.19,0.54-0.28,1.04-0.28h1.77c0.5,0,0.85,0.09,1.04,0.28c0.16,0.15,0.28,0.36,0.35,0.62
			c0.07,0.26,0.11,0.66,0.12,1.19h-1.29c-0.02-0.53-0.07-0.85-0.16-0.94c-0.06-0.05-0.19-0.08-0.4-0.08h-1.07
			c-0.21,0-0.34,0.03-0.4,0.08c-0.12,0.11-0.18,0.69-0.18,1.74c0,1.04,0.06,1.62,0.18,1.74c0.06,0.05,0.19,0.07,0.4,0.07h1.07
			c0.2,0.01,0.33-0.02,0.4-0.07c0.09-0.09,0.15-0.43,0.16-1.01H167.14z"/>
		<path class="st2" d="M183.72,69.95h-1.77v4.7h-1.34v-4.7h-1.76v-1.07h4.87V69.95z"/>
	</g>
	<g>
		<g>
			<g>
				<g>
					<g>
						<g>
							<path class="st2" d="M133.93,34.47l-18.18,0c-1.57,0-3.14-0.5-4.31-1.54c-1.31-1.17-2.14-2.81-2.14-4.55V25.2l5.74,0l0,3.53
								l18.88,0c2.3,0.06,4.16-1.81,4.16-4.1v-0.74c0-2.3-1.86-4.16-4.15-4.16l-14.78-0.03c-5.37-0.01-9.83-4.34-9.83-9.7
								c0-5.59,4.57-10,10.08-10l16.95,0c3.37,0,6.09,2.73,6.09,6.09v2.84h-5.69V5.76l-17.45,0c-2.16,0-4.18,1.65-4.18,3.92
								c0,2.48,1.63,4.33,4.05,4.33l14.78,0.03c5.43,0.01,9.83,4.42,9.83,9.85v0.74C143.77,30.06,139.37,34.47,133.93,34.47z"/>
						</g>
						<g>
							<path class="st2" d="M172.44,34.44c-3.75-0.04-7.49-0.06-11.24,0.02c-6.43,0.13-11.68-5.04-11.68-11.44V11.46
								c0-6.32,5.13-11.45,11.45-11.45h11.6c6.32,0,11.44,5.12,11.44,11.44v11.54C184,29.35,178.82,34.5,172.44,34.44z M172.55,5.76
								h-11.59c-3.15,0-5.7,2.55-5.7,5.7v11.58c0,3.15,2.55,5.7,5.7,5.7h11.59c3.15,0,5.7-2.55,5.7-5.7V11.46
								C178.25,8.31,175.7,5.76,172.55,5.76z"/>
						</g>
					</g>
					<path class="st2" d="M0.14,0.02c3.75,1.44,5.75,4.99,5.75,8.52v25.94h5.75V0.02H0.14z"/>
					<path class="st2" d="M37.29,0.02c-33.77,0-6.77,0-22.84,0c0,0,5.7,1.86,5.7,8.54v25.91h5.68V5.69h11.46
						c6.36,0,11.52,5.16,11.52,11.52v17.25h5.68V17.22C54.49,7.72,46.79,0.02,37.29,0.02z"/>
					<path class="st2" d="M92.22,0.02c4.22,1.62,5.59,5.71,5.59,8.46v26h5.75l-0.01-34.45H92.22z"/>
					<path class="st2" d="M86.32,0.02l-7.1,25.32l-0.05,0.19c-0.4,1.96-2.16,3.33-4.29,3.33c-2.13,0-4.01-1.43-4.57-3.48L63.34,0.02
						c0,0-3.93,0-11.49,0c0.28,0,6.28,2.34,8.19,9.32l4.8,17.54c1.24,4.51,5.37,7.66,10.05,7.66c4.75,0,8.87-3.26,9.83-7.78
						l7.35-26.74H86.32z"/>
				</g>
			</g>
		</g>
		<polygon class="st2" points="97.81,53.03 0,51.83 97.81,50.33 		"/>
	</g>
</g>
</svg>
